Land_normalized_Precision Landing15_filtered_grf
version=1
nRows=30
nColumns=37
inDegrees=yes
endheader
time		1_ground_force_vx		1_ground_force_vy		1_ground_force_vz		1_ground_force_px		1_ground_force_py		1_ground_force_pz		1_ground_torque_x		1_ground_torque_y		1_ground_torque_z		2_ground_force_vx		2_ground_force_vy		2_ground_force_vz		2_ground_force_px		2_ground_force_py		2_ground_force_pz		2_ground_torque_x		2_ground_torque_y		2_ground_torque_z		3_ground_force_vx		3_ground_force_vy		3_ground_force_vz		3_ground_force_px		3_ground_force_py		3_ground_force_pz		3_ground_torque_x		3_ground_torque_y		3_ground_torque_z		4_ground_force_vx		4_ground_force_vy		4_ground_force_vz		4_ground_force_px		4_ground_force_py		4_ground_force_pz		4_ground_torque_x		4_ground_torque_y		4_ground_torque_z		
1.072833		-49.671973		819.674927		245.586577		0.106297		0.000000		0.295808		-0.371869		6.137316		1.838879		22.927504		558.210047		203.713282		-0.152847		0.000000		0.301174		1.360962		33.134646		12.092163		5.135621		-0.379108		-1.014142		0.353587		1.255134		1.891183		-0.005241		0.000387		0.001035		-18.634851		0.544535		-2.538863		-0.288894		1.264861		1.901078		0.017947		-0.000524		0.002445		
1.076192		-56.123976		806.620551		235.858283		0.108031		0.000000		0.296358		-0.337631		4.853260		1.419144		31.120911		545.815403		200.477339		-0.155638		0.000000		0.302480		1.870811		32.810507		12.051273		4.992110		-0.588402		-0.883274		0.353579		1.255141		1.891194		0.000338		0.010756		0.029521		-18.533878		0.549088		-2.427053		-0.288959		1.264871		1.901124		0.018224		-0.000539		0.002387		
1.079551		-61.191999		790.908288		227.478927		0.108492		0.000000		0.294262		-0.282597		3.652733		1.050597		37.782855		534.980584		199.057543		-0.157881		0.000000		0.302942		2.311164		32.724402		12.176220		4.913747		-0.764612		-0.724091		0.353559		1.255151		1.891213		0.000385		0.008370		0.033934		-18.346943		0.568493		-2.402567		-0.289036		1.264875		1.901171		0.015503		-0.000481		0.002030		
1.082909		-64.606914		775.539183		219.757013		0.108433		0.000000		0.291630		-0.242367		2.909443		0.824427		42.377541		526.388203		197.199565		-0.159090		0.000000		0.302928		2.624173		32.595808		12.211291		4.890386		-0.866668		-0.551575		0.353519		1.255161		1.891240		-0.000245		0.007189		0.036337		-18.097563		0.598305		-2.429909		-0.289112		1.264872		1.901212		0.011184		-0.000369		0.001502		
1.086268		-66.334612		763.210956		212.636039		0.108556		0.000000		0.290173		-0.238235		2.740985		0.763655		45.593136		521.196954		194.469986		-0.159475		0.000000		0.302862		2.832449		32.379093		12.081349		4.900654		-0.879598		-0.401029		0.353461		1.255170		1.891272		-0.001550		0.009026		0.036303		-17.847743		0.607753		-2.450628		-0.289174		1.264865		1.901246		0.007365		-0.000251		0.001011		
1.089626		-66.344080		755.034928		206.430753		0.109057		0.000000		0.290256		-0.265646		3.023217		0.826554		48.372854		520.302084		191.362529		-0.159466		0.000000		0.303046		2.987881		32.137953		11.820067		4.928342		-0.809718		-0.333227		0.353386		1.255178		1.891309		-0.002842		0.013711		0.034163		-17.672403		0.567626		-2.431728		-0.289215		1.264859		1.901273		0.005454		-0.000175		0.000751		
1.092985		-64.808118		750.693954		201.333128		0.109675		0.000000		0.291189		-0.307385		3.560560		0.954926		51.109204		523.887023		187.973493		-0.159225		0.000000		0.303621		3.110479		31.883503		11.439977		4.973186		-0.679007		-0.405660		0.353300		1.255184		1.891351		-0.003279		0.018969		0.030597		-17.624558		0.483217		-2.385673		-0.289231		1.264855		1.901297		0.005458		-0.000150		0.000739		
1.096343		-62.323379		749.258250		197.111879		0.110074		0.000000		0.292100		-0.344488		4.141581		1.089537		53.508010		531.428192		183.604737		-0.158557		0.000000		0.304598		3.173309		31.516616		10.888846		5.049989		-0.523446		-0.626133		0.353211		1.255185		1.891398		-0.007773		0.000806		0.000963		-17.712974		0.400084		-2.355775		-0.289227		1.264855		1.901326		0.006357		-0.000143		0.000846		
1.099702		-59.565663		749.802601		193.262619		0.110101		0.000000		0.292491		-0.364330		4.586209		1.182092		55.093788		542.017888		177.470813		-0.157274		0.000000		0.305906		3.141427		30.905643		10.119471		5.172239		-0.386906		-0.926413		0.353127		1.255181		1.891448		-0.005912		0.000443		0.001058		-17.902797		0.372683		-2.381838		-0.289214		1.264857		1.901364		0.006966		-0.000145		0.000927		
1.103061		-56.740291		751.748359		189.472301		0.109770		0.000000		0.292300		-0.370152		4.904160		1.236051		55.795174		554.758671		169.539690		-0.155492		0.000000		0.307423		3.017904		30.006257		9.170303		5.335293		-0.306600		-1.194201		0.353056		1.255173		1.891499		-0.003453		0.000199		0.000773		-18.139741		0.421634		-2.476020		-0.289203		1.264861		1.901414		0.006608		-0.000153		0.000902		
1.106419		-53.641653		754.859932		185.842905		0.109211		0.000000		0.291804		-0.375799		5.288444		1.301982		56.067523		568.831151		160.635801		-0.153586		0.000000		0.309004		2.849389		28.908263		8.163716		5.515492		-0.301059		-1.336109		0.353005		1.255163		1.891545		-0.001373		0.000075		0.000333		-18.371434		0.516176		-2.616893		-0.289202		1.264865		1.901469		0.005377		-0.000151		0.000766		
1.109778		-50.159704		759.039785		182.696317		0.108634		0.000000		0.291428		-0.386291		5.845789		1.407029		56.475268		583.557062		151.752058		-0.151897		0.000000		0.310520		2.686297		27.757256		7.218400		5.679481		-0.361876		-1.332617		0.352976		1.255154		1.891584		-0.000032		0.000002		0.000008		-18.556961		0.597403		-2.764765		-0.289216		1.264869		1.901523		0.003971		-0.000128		0.000592		
1.113136		-46.470343		764.114263		180.211804		0.108186		0.000000		0.291442		-0.393885		6.476899		1.527527		57.123501		598.576452		143.228534		-0.150508		0.000000		0.311915		2.539590		26.611334		6.367775		5.793037		-0.456518		-1.238882		0.352972		1.255151		1.891613		0.000788		-0.000062		-0.000168		-18.667308		0.625420		-2.887144		-0.289246		1.264871		1.901571		0.003137		-0.000105		0.000485		
1.116495		-42.746128		769.839609		178.278734		0.107830		0.000000		0.291806		-0.394032		7.096348		1.643365		57.511235		613.965125		134.561974		-0.149274		0.000000		0.313227		2.377417		25.380265		5.562570		5.830704		-0.543472		-1.136094		0.352989		1.255153		1.891634		0.001473		-0.000137		-0.000287		-18.686347		0.604040		-2.969522		-0.289287		1.264873		1.901608		0.003149		-0.000102		0.000500		
1.119854		-38.982134		776.117540		176.606838		0.107433		0.000000		0.292282		-0.389827		7.761610		1.766155		56.945197		630.194502		124.891713		-0.148013		0.000000		0.314542		2.159607		23.899202		4.736562		5.785889		-0.591587		-1.076871		0.353020		1.255159		1.891649		0.002253		-0.000231		-0.000420		-18.612659		0.568108		-3.012569		-0.289333		1.264875		1.901636		0.003681		-0.000112		0.000596		
1.123212		-35.188912		783.136165		174.843264		0.106935		0.000000		0.292630		-0.381706		8.495357		1.896660		55.197296		647.875569		113.750955		-0.146689		0.000000		0.315941		1.880947		22.076543		3.876427		5.673405		-0.592621		-1.061457		0.353061		1.255168		1.891659		0.003077		-0.000322		-0.000576		-18.463450		0.552072		-3.021322		-0.289380		1.264877		1.901654		0.004119		-0.000123		0.000674		
1.126571		-31.541528		791.312127		172.567249		0.106397		0.000000		0.292759		-0.365828		9.178027		2.001512		52.742338		667.399921		101.418003		-0.145429		0.000000		0.317431		1.578661		19.975738		3.035688		5.522932		-0.557320		-1.064077		0.353103		1.255178		1.891668		0.003672		-0.000370		-0.000708		-18.272262		0.569318		-3.002262		-0.289421		1.264881		1.901664		0.004068		-0.000127		0.000669		
1.129929		-28.211094		801.063730		169.298455		0.105962		0.000000		0.292791		-0.342773		9.733268		2.057041		50.416733		688.627419		88.721439		-0.144381		0.000000		0.318935		1.301932		17.782181		2.291187		5.376672		-0.502525		-1.075595		0.353141		1.255187		1.891679		0.003630		-0.000340		-0.000726		-18.082640		0.614243		-2.963374		-0.289455		1.264885		1.901667		0.003609		-0.000122		0.000592		
1.133288		-25.173828		812.455144		164.720384		0.105751		0.000000		0.292980		-0.318088		10.266204		2.081390		48.789029		710.792432		76.516717		-0.143583		0.000000		0.320326		1.076589		15.683731		1.688622		5.283480		-0.438117		-1.116430		0.353170		1.255194		1.891693		0.002528		-0.000210		-0.000534		-17.932110		0.673358		-2.914201		-0.289476		1.264888		1.901661		0.003136		-0.000118		0.000510		
1.136646		-22.309332		824.898704		158.916086		0.105776		0.000000		0.293478		-0.294568		10.892133		2.098336		47.789953		732.693153		65.230444		-0.142955		0.000000		0.321508		0.897648		13.761837		1.225370		5.280914		-0.364336		-1.204832		0.353186		1.255197		1.891712		0.000128		-0.000009		-0.000029		-17.833209		0.730139		-2.863123		-0.289484		1.264888		1.901648		0.002987		-0.000123		0.000479		
1.140005		-19.594985		837.204429		152.309232		0.105946		0.000000		0.294194		-0.270506		11.557521		2.102612		46.907467		752.967980		54.807621		-0.142385		0.000000		0.322458		0.746624		11.984936		0.872375		5.376110		-0.280572		-1.319218		0.353188		1.255198		1.891734		-0.003396		0.000177		0.000834		-17.772697		0.761209		-2.809367		-0.289477		1.264886		1.901630		0.003304		-0.000141		0.000522		
1.143364		-17.109359		847.931671		145.392684		0.106145		0.000000		0.294894		-0.244862		12.135489		2.080824		45.680025		770.276860		45.015133		-0.141814		0.000000		0.323200		0.610142		10.288058		0.601348		5.539855		-0.196719		-1.394840		0.353175		1.255197		1.891755		-0.007391		0.000262		0.001861		-17.734837		0.739728		-2.742513		-0.289451		1.264881		1.901607		0.004187		-0.000175		0.000647		
1.146722		-14.918890		855.898999		138.521614		0.106316		0.000000		0.295392		-0.219515		12.593868		2.038219		44.058561		783.478972		35.841853		-0.141255		0.000000		0.323759		0.487356		8.666007		0.396553		5.715903		-0.135252		-1.365612		0.353156		1.255198		1.891770		-0.010922		0.000258		0.002609		-17.726233		0.653755		-2.655548		-0.289412		1.264876		1.901582		0.005749		-0.000212		0.000861		
1.150081		-13.070645		860.416836		131.896237		0.106470		0.000000		0.295640		-0.196707		12.948911		1.984977		42.311056		791.649802		27.711987		-0.140749		0.000000		0.324118		0.385223		7.207416		0.252337		5.843861		-0.119052		-1.217035		0.353139		1.255202		1.891774		-0.013204		0.000269		0.002749		-17.777110		0.522221		-2.561712		-0.289361		1.264868		1.901556		0.007899		-0.000232		0.001138		
1.153439		-11.624183		861.282919		125.658420		0.106647		0.000000		0.295696		-0.177620		13.160630		1.920092		40.640712		794.123683		21.348609		-0.140314		0.000000		0.324227		0.309585		6.049233		0.162638		5.883754		-0.154775		-1.003516		0.353140		1.255212		1.891762		-0.013970		0.000368		0.002383		-17.921871		0.394530		-2.496056		-0.289295		1.264861		1.901529		0.010181		-0.000224		0.001418		
1.156798		-10.587870		858.673855		119.957816		0.106887		0.000000		0.295671		-0.162790		13.202246		1.844369		38.907897		790.548855		17.394690		-0.139926		0.000000		0.324038		0.260554		5.293944		0.116493		5.832849		-0.225280		-0.815345		0.353162		1.255224		1.891737		-0.013467		0.000520		0.001882		-18.173164		0.326792		-2.495597		-0.289220		1.264854		1.901501		0.011853		-0.000213		0.001628		
1.160157		-9.860465		852.955283		114.963160		0.107199		0.000000		0.295642		-0.152062		13.153757		1.772891		36.738413		780.884623		16.048477		-0.139535		0.000000		0.323532		0.233025		4.952985		0.101792		5.721433		-0.300450		-0.718711		0.353209		1.255240		1.891699		-0.012072		0.000634		0.001516		-18.504464		0.349510		-2.572948		-0.289138		1.264850		1.901469		0.012102		-0.000228		0.001683		
1.163515		-9.332849		844.478955		110.841861		0.107573		0.000000		0.295615		-0.144809		13.102950		1.719824		33.897813		765.323327		17.004944		-0.139101		0.000000		0.322732		0.219693		4.960098		0.110210		5.594302		-0.355187		-0.724253		0.353280		1.255256		1.891651		-0.009992		0.000635		0.001294		-18.854390		0.454129		-2.702035		-0.289053		1.264847		1.901435		0.010494		-0.000253		0.001504		
1.166874		-9.016846		833.489805		107.719113		0.108023		0.000000		0.295557		-0.140840		13.018846		1.682538		30.564275		744.329826		19.664318		-0.138624		0.000000		0.321670		0.214537		5.224799		0.138044		5.492228		-0.379501		-0.799116		0.353363		1.255269		1.891599		-0.007322		0.000506		0.001065		-19.146144		0.604459		-2.824587		-0.288973		1.264846		1.901398		0.007480		-0.000236		0.001103		
1.170232		-9.001160		820.149971		105.600907		0.108572		0.000000		0.295430		-0.140675		12.817750		1.650389		27.264134		718.814218		23.423625		-0.138150		0.000000		0.320389		0.215378		5.678723		0.185079		5.434163		-0.380477		-0.901115		0.353448		1.255277		1.891547		-0.004268		0.000299		0.000707		-19.315678		0.757594		-2.877239		-0.288904		1.264845		1.901358		0.004329		-0.000170		0.000645		
